<svg width="30" height="30" viewBox="0 0 30 30" fill="none" xmlns="http://www.w3.org/2000/svg">
<rect width="30" height="30" rx="15" fill="#EE8208"/>
<path d="M14.999 8.0251C16.1775 8.0251 17.1361 8.98373 17.1361 10.1622C17.1361 11.3398 16.1773 12.2984 14.999 12.2984C13.8212 12.2984 12.8623 11.3398 12.8623 10.1622C12.8621 8.98348 13.8215 8.0251 14.999 8.0251ZM14.999 15.322C17.8457 15.322 20.1607 13.0077 20.1607 10.1622C20.1607 7.31528 17.846 5 14.999 5C12.1525 5 9.83724 7.31552 9.83724 10.1622C9.83724 13.0077 12.1525 15.322 14.999 15.322ZM17.0872 19.5323C18.1491 19.2905 19.1624 18.8709 20.0844 18.2913C20.4238 18.0777 20.6645 17.7381 20.7535 17.3471C20.8425 16.9561 20.7726 16.5457 20.559 16.2063C20.4534 16.038 20.3157 15.8923 20.1537 15.7773C19.9917 15.6624 19.8086 15.5805 19.6149 15.5363C19.4213 15.4922 19.2208 15.4866 19.025 15.52C18.8292 15.5534 18.6419 15.6251 18.4738 15.7309C16.3591 17.0604 13.6374 17.0594 11.5245 15.7309C11.3564 15.625 11.1691 15.5534 10.9733 15.52C10.7775 15.4865 10.5771 15.4921 10.3834 15.5362C10.1897 15.5804 10.0067 15.6623 9.84471 15.7773C9.68274 15.8922 9.54503 16.038 9.43946 16.2063C9.22585 16.5456 9.15577 16.9559 9.24464 17.3469C9.33351 17.7379 9.57404 18.0776 9.91334 18.2913C10.8353 18.8707 11.8484 19.2902 12.91 19.5323L10.0245 22.4183C9.74096 22.702 9.58169 23.0867 9.58176 23.4878C9.58183 23.8888 9.74123 24.2735 10.0249 24.5571C10.3086 24.8406 10.6933 24.9999 11.0943 24.9998C11.4954 24.9997 11.8801 24.8403 12.1636 24.5567L14.9985 21.7213L17.8351 24.5569C17.9753 24.6974 18.1419 24.8088 18.3253 24.8848C18.5086 24.9609 18.7052 25 18.9037 25C19.1021 25 19.2987 24.9609 19.482 24.8848C19.6654 24.8088 19.832 24.6974 19.9722 24.5569C20.1129 24.4167 20.2245 24.2501 20.3007 24.0666C20.3768 23.8832 20.416 23.6865 20.416 23.4879C20.416 23.2892 20.3768 23.0926 20.3007 22.9091C20.2245 22.7257 20.1129 22.559 19.9722 22.4188L17.0872 19.5323Z" fill="white"/>
</svg>
