<svg width="20" height="20" viewBox="0 0 20 20" fill="none" xmlns="http://www.w3.org/2000/svg">
<path d="M0 8C0 4.22876 0 2.34315 1.17157 1.17157C2.34315 0 4.22876 0 8 0H12C15.7712 0 17.6569 0 18.8284 1.17157C20 2.34315 20 4.22876 20 8V12C20 15.7712 20 17.6569 18.8284 18.8284C17.6569 20 15.7712 20 12 20H8C4.22876 20 2.34315 20 1.17157 18.8284C0 17.6569 0 15.7712 0 12V8Z" fill="white"/>
<path d="M1.17157 18.8284L0.464466 19.5355L1.17157 18.8284ZM18.8284 18.8284L18.1213 18.1213L18.8284 18.8284ZM18.8284 1.17157L19.5355 0.464466L18.8284 1.17157ZM8 1H12V-1H8V1ZM19 8V12H21V8H19ZM12 19H8V21H12V19ZM1 12V8H-1V12H1ZM8 19C6.08611 19 4.75129 18.9979 3.74416 18.8625C2.76579 18.7309 2.2477 18.4903 1.87868 18.1213L0.464466 19.5355C1.26702 20.3381 2.27752 20.6833 3.47766 20.8446C4.64904 21.0021 6.14265 21 8 21V19ZM-1 12C-1 13.8573 -1.00212 15.351 -0.844636 16.5223C-0.683281 17.7225 -0.338089 18.733 0.464466 19.5355L1.87868 18.1213C1.50966 17.7523 1.26907 17.2342 1.13753 16.2558C1.00212 15.2487 1 13.9139 1 12H-1ZM19 12C19 13.9139 18.9979 15.2487 18.8625 16.2558C18.7309 17.2342 18.4903 17.7523 18.1213 18.1213L19.5355 19.5355C20.3381 18.733 20.6833 17.7225 20.8446 16.5223C21.0021 15.351 21 13.8573 21 12H19ZM12 21C13.8573 21 15.351 21.0021 16.5223 20.8446C17.7225 20.6833 18.733 20.3381 19.5355 19.5355L18.1213 18.1213C17.7523 18.4903 17.2342 18.7309 16.2558 18.8625C15.2487 18.9979 13.9139 19 12 19V21ZM12 1C13.9139 1 15.2487 1.00212 16.2558 1.13753C17.2342 1.26907 17.7523 1.50966 18.1213 1.87868L19.5355 0.464466C18.733 -0.338089 17.7225 -0.683281 16.5223 -0.844636C15.351 -1.00212 13.8573 -1 12 -1V1ZM21 8C21 6.14265 21.0021 4.64904 20.8446 3.47767C20.6833 2.27752 20.3381 1.26702 19.5355 0.464466L18.1213 1.87868C18.4903 2.2477 18.7309 2.76579 18.8625 3.74416C18.9979 4.75129 19 6.08611 19 8H21ZM8 -1C6.14265 -1 4.64904 -1.00212 3.47767 -0.844636C2.27752 -0.683281 1.26702 -0.338089 0.464466 0.464466L1.87868 1.87868C2.2477 1.50966 2.76579 1.26907 3.74416 1.13753C4.75129 1.00212 6.08611 1 8 1V-1ZM1 8C1 6.08611 1.00212 4.75129 1.13753 3.74416C1.26907 2.76579 1.50966 2.2477 1.87868 1.87868L0.464466 0.464466C-0.338089 1.26702 -0.683281 2.27752 -0.844636 3.47766C-1.00212 4.64904 -1 6.14265 -1 8H1Z" fill="#E3E2E2"/>
</svg>
