<svg width="30" height="30" viewBox="0 0 30 30" fill="none" xmlns="http://www.w3.org/2000/svg">
<rect width="30" height="30" rx="15" fill="url(#paint0_linear_2801_15276)"/>
<path d="M11.8755 14.5731C11.8755 12.8529 13.2742 11.458 15 11.458C16.7258 11.458 18.1252 12.8529 18.1252 14.5731C18.1252 16.2933 16.7258 17.6882 15 17.6882C13.2742 17.6882 11.8755 16.2933 11.8755 14.5731ZM10.186 14.5731C10.186 17.2232 12.3412 19.3714 15 19.3714C17.6587 19.3714 19.8139 17.2232 19.8139 14.5731C19.8139 11.923 17.6587 9.77476 15 9.77476C12.3412 9.77476 10.186 11.923 10.186 14.5731ZM18.8795 9.5845C18.8794 9.80629 18.9453 10.0231 19.0689 10.2076C19.1924 10.392 19.3681 10.5358 19.5736 10.6208C19.7791 10.7057 20.0053 10.728 20.2236 10.6848C20.4418 10.6417 20.6423 10.5349 20.7997 10.3782C20.9571 10.2214 21.0643 10.0217 21.1078 9.80416C21.1513 9.58665 21.1291 9.36118 21.0441 9.15625C20.959 8.95131 20.8149 8.77612 20.6299 8.65284C20.445 8.52955 20.2275 8.46369 20.005 8.46361H20.0045C19.7063 8.46374 19.4203 8.58187 19.2093 8.79204C18.9984 9.0022 18.8798 9.28723 18.8795 9.5845ZM11.2125 22.1793C10.2985 22.1378 9.80167 21.9861 9.47152 21.8579C9.03382 21.688 8.72152 21.4857 8.39317 21.1589C8.06482 20.8321 7.86157 20.5211 7.69192 20.0848C7.56322 19.7559 7.41097 19.2605 7.36942 18.3495C7.32397 17.3645 7.3149 17.0686 7.3149 14.5732C7.3149 12.0777 7.32472 11.7826 7.36942 10.7968C7.41105 9.88577 7.56442 9.39141 7.69192 9.06151C7.86232 8.62523 8.06527 8.31394 8.39317 7.98666C8.72107 7.65937 9.03307 7.45678 9.47152 7.28768C9.80152 7.1594 10.2985 7.00765 11.2125 6.96623C12.2007 6.92093 12.4975 6.91188 15 6.91188C17.5024 6.91188 17.7996 6.92168 18.7886 6.96623C19.7026 7.00772 20.1986 7.1606 20.5296 7.28768C20.9673 7.45678 21.2796 7.65982 21.6079 7.98666C21.9363 8.31349 22.1388 8.62523 22.3092 9.06151C22.4379 9.39044 22.5901 9.88577 22.6317 10.7968C22.6771 11.7826 22.6862 12.0777 22.6862 14.5732C22.6862 17.0686 22.6771 17.3637 22.6317 18.3495C22.5901 19.2605 22.4371 19.7557 22.3092 20.0848C22.1388 20.5211 21.9358 20.8324 21.6079 21.1589C21.28 21.4854 20.9673 21.688 20.5296 21.8579C20.1996 21.9862 19.7026 22.1379 18.7886 22.1793C17.8004 22.2246 17.5036 22.2337 15 22.2337C12.4964 22.2337 12.2004 22.2246 11.2125 22.1793ZM11.1349 5.28511C10.1368 5.33041 9.45487 5.48815 8.8593 5.71914C8.2425 5.95769 7.72035 6.27772 7.19857 6.79698C6.6768 7.31624 6.35655 7.83752 6.11722 8.45232C5.88547 9.04633 5.72722 9.72572 5.68177 10.7205C5.63557 11.7169 5.625 12.0354 5.625 14.5731C5.625 17.1108 5.63557 17.4293 5.68177 18.4257C5.72722 19.4205 5.88547 20.0998 6.11722 20.6939C6.35655 21.3083 6.67687 21.8302 7.19857 22.3492C7.72027 22.8682 8.2425 23.1878 8.8593 23.427C9.456 23.658 10.1368 23.8158 11.1349 23.8611C12.135 23.9064 12.454 23.9177 15 23.9177C17.5459 23.9177 17.8655 23.9071 18.8651 23.8611C19.8632 23.8158 20.5447 23.658 21.1407 23.427C21.7571 23.1878 22.2796 22.8684 22.8014 22.3492C23.3232 21.8299 23.6428 21.3083 23.8828 20.6939C24.1145 20.0998 24.2735 19.4204 24.3182 18.4257C24.3637 17.4286 24.3742 17.1108 24.3742 14.5731C24.3742 12.0354 24.3637 11.7169 24.3182 10.7205C24.2728 9.72565 24.1145 9.04596 23.8828 8.45232C23.6428 7.83789 23.3224 7.31706 22.8014 6.79698C22.2805 6.2769 21.7571 5.95769 21.1414 5.71914C20.5447 5.48815 19.8631 5.32966 18.8659 5.28511C17.8663 5.2398 17.5467 5.22852 15.0007 5.22852C12.4548 5.22852 12.135 5.23906 11.1349 5.28511Z" fill="white"/>
<defs>
<linearGradient id="paint0_linear_2801_15276" x1="3.4375" y1="25" x2="26.5625" y2="5" gradientUnits="userSpaceOnUse">
<stop stop-color="#FFAE4D"/>
<stop offset="0.494792" stop-color="#ED4B61"/>
<stop offset="0.973958" stop-color="#AA31BE"/>
</linearGradient>
</defs>
</svg>
