<svg width="30" height="30" viewBox="0 0 30 30" fill="none" xmlns="http://www.w3.org/2000/svg">
<rect width="30" height="30" rx="15" fill="#FF0000"/>
<path fill-rule="evenodd" clip-rule="evenodd" d="M22.3362 8.83711C23.1393 9.05334 23.7726 9.68657 23.9888 10.4897C24.3904 11.9569 24.3749 15.015 24.3749 15.015C24.3749 15.015 24.3749 18.0576 23.9888 19.5249C23.7726 20.328 23.1393 20.9612 22.3362 21.1775C20.869 21.5636 15 21.5636 15 21.5636C15 21.5636 9.1464 21.5636 7.66371 21.162C6.86058 20.9458 6.22735 20.3126 6.01112 19.5094C5.625 18.0576 5.625 14.9996 5.625 14.9996C5.625 14.9996 5.625 11.9569 6.01112 10.4897C6.22735 9.68657 6.87602 9.03789 7.66371 8.82167C9.13096 8.43555 15 8.43555 15 8.43555C15 8.43555 20.869 8.43555 22.3362 8.83711ZM18.0117 14.9996L13.1312 17.8105V12.1886L18.0117 14.9996Z" fill="white"/>
</svg>
